<svg width="186" height="43" viewBox="0 0 186 43" fill="none" xmlns="http://www.w3.org/2000/svg">
    <path
        d="M43.816 32V28.892H48.94C49.8547 28.892 50.564 28.612 51.068 28.052C51.5907 27.492 51.852 26.8293 51.852 26.064C51.852 25.5413 51.74 25.0653 51.516 24.636C51.292 24.2067 50.956 23.8707 50.508 23.628C50.0787 23.3667 49.556 23.236 48.94 23.236H43.816V20.156H48.52C49.304 20.156 49.9293 19.96 50.396 19.568C50.8813 19.176 51.124 18.588 51.124 17.804C51.124 17.0013 50.8813 16.404 50.396 16.012C49.9293 15.62 49.304 15.424 48.52 15.424H43.816V12.316H48.968C50.2747 12.316 51.3667 12.5587 52.244 13.044C53.14 13.5107 53.812 14.136 54.26 14.92C54.708 15.6853 54.932 16.5253 54.932 17.44C54.932 18.56 54.5867 19.5307 53.896 20.352C53.224 21.1547 52.2347 21.752 50.928 22.144L51.096 20.912C52.552 21.3227 53.672 22.004 54.456 22.956C55.2587 23.8893 55.66 25.0187 55.66 26.344C55.66 27.3893 55.3987 28.3413 54.876 29.2C54.372 30.04 53.6253 30.7213 52.636 31.244C51.6653 31.748 50.48 32 49.08 32H43.816ZM41.016 32V12.316H44.796V32H41.016ZM58.2881 32V18.476H61.9561V32H58.2881ZM61.9561 24.524L60.5281 23.572C60.6961 21.9107 61.1814 20.604 61.9841 19.652C62.7867 18.6813 63.9441 18.196 65.4561 18.196C66.1094 18.196 66.6974 18.308 67.2201 18.532C67.7427 18.7373 68.2187 19.0827 68.6481 19.568L66.3521 22.2C66.1467 21.976 65.8947 21.808 65.5961 21.696C65.3161 21.584 64.9894 21.528 64.6161 21.528C63.8321 21.528 63.1881 21.78 62.6841 22.284C62.1987 22.7693 61.9561 23.516 61.9561 24.524ZM75.2097 32.28C73.9777 32.28 72.867 31.972 71.8777 31.356C70.8884 30.74 70.1137 29.9 69.5537 28.836C68.9937 27.772 68.7137 26.5773 68.7137 25.252C68.7137 23.908 68.9937 22.704 69.5537 21.64C70.1137 20.576 70.8884 19.736 71.8777 19.12C72.867 18.504 73.9777 18.196 75.2097 18.196C76.1804 18.196 77.0484 18.392 77.8137 18.784C78.579 19.176 79.1857 19.7267 79.6337 20.436C80.1004 21.1267 80.3524 21.9107 80.3897 22.788V27.66C80.3524 28.556 80.1004 29.3493 79.6337 30.04C79.1857 30.7307 78.579 31.2813 77.8137 31.692C77.0484 32.084 76.1804 32.28 75.2097 32.28ZM75.8817 28.892C76.9084 28.892 77.739 28.556 78.3737 27.884C79.0084 27.1933 79.3257 26.3067 79.3257 25.224C79.3257 24.5147 79.1764 23.8893 78.8777 23.348C78.5977 22.788 78.1964 22.3587 77.6737 22.06C77.1697 21.7427 76.5724 21.584 75.8817 21.584C75.2097 21.584 74.6124 21.7427 74.0897 22.06C73.5857 22.3587 73.1844 22.788 72.8857 23.348C72.6057 23.8893 72.4657 24.5147 72.4657 25.224C72.4657 25.952 72.6057 26.596 72.8857 27.156C73.1844 27.6973 73.5857 28.1267 74.0897 28.444C74.6124 28.7427 75.2097 28.892 75.8817 28.892ZM79.1297 32V28.36L79.7177 25.056L79.1297 21.808V18.476H82.7697V32H79.1297ZM86.0146 32V18.476H89.7106V32H86.0146ZM87.8626 16.292C87.2653 16.292 86.7706 16.096 86.3786 15.704C85.9866 15.2933 85.7906 14.7893 85.7906 14.192C85.7906 13.6133 85.9866 13.1187 86.3786 12.708C86.7706 12.2973 87.2653 12.092 87.8626 12.092C88.4786 12.092 88.9733 12.2973 89.3466 12.708C89.7386 13.1187 89.9346 13.6133 89.9346 14.192C89.9346 14.7893 89.7386 15.2933 89.3466 15.704C88.9733 16.096 88.4786 16.292 87.8626 16.292ZM102.06 32V24.244C102.06 23.4413 101.808 22.788 101.304 22.284C100.8 21.78 100.147 21.528 99.3439 21.528C98.8213 21.528 98.3546 21.64 97.9439 21.864C97.5333 22.088 97.2066 22.4053 96.9639 22.816C96.7399 23.2267 96.6279 23.7027 96.6279 24.244L95.1999 23.516C95.1999 22.452 95.4239 21.528 95.8719 20.744C96.3386 19.9413 96.9733 19.316 97.7759 18.868C98.5973 18.42 99.5213 18.196 100.548 18.196C101.537 18.196 102.424 18.448 103.208 18.952C103.992 19.4373 104.608 20.0813 105.056 20.884C105.504 21.668 105.728 22.5173 105.728 23.432V32H102.06ZM92.9599 32V18.476H96.6279V32H92.9599ZM108.683 32V11.756H112.351V32H108.683ZM122.069 32.28C120.65 32.28 119.39 31.9813 118.289 31.384C117.187 30.768 116.31 29.928 115.657 28.864C115.022 27.8 114.705 26.5867 114.705 25.224C114.705 23.88 115.013 22.6853 115.629 21.64C116.263 20.576 117.122 19.736 118.205 19.12C119.287 18.4853 120.491 18.168 121.817 18.168C123.123 18.168 124.271 18.4667 125.261 19.064C126.269 19.6427 127.053 20.4453 127.613 21.472C128.191 22.48 128.481 23.628 128.481 24.916C128.481 25.1587 128.462 25.4107 128.425 25.672C128.406 25.9147 128.359 26.1947 128.285 26.512L116.917 26.54V23.796L126.577 23.768L125.093 24.916C125.055 24.1133 124.906 23.4413 124.645 22.9C124.402 22.3587 124.038 21.948 123.553 21.668C123.086 21.3693 122.507 21.22 121.817 21.22C121.089 21.22 120.454 21.388 119.913 21.724C119.371 22.0413 118.951 22.4987 118.653 23.096C118.373 23.6747 118.233 24.3653 118.233 25.168C118.233 25.9893 118.382 26.708 118.681 27.324C118.998 27.9213 119.446 28.388 120.025 28.724C120.603 29.0413 121.275 29.2 122.041 29.2C122.731 29.2 123.357 29.088 123.917 28.864C124.477 28.6213 124.962 28.2667 125.373 27.8L127.529 29.956C126.875 30.7213 126.073 31.3 125.121 31.692C124.187 32.084 123.17 32.28 122.069 32.28ZM135.397 32.308C134.632 32.308 133.876 32.2053 133.129 32C132.401 31.7947 131.729 31.5147 131.113 31.16C130.497 30.7867 129.965 30.3387 129.517 29.816L131.701 27.604C132.168 28.1267 132.709 28.5187 133.325 28.78C133.941 29.0413 134.622 29.172 135.369 29.172C135.966 29.172 136.414 29.088 136.713 28.92C137.03 28.752 137.189 28.5 137.189 28.164C137.189 27.7907 137.021 27.5013 136.685 27.296C136.368 27.0907 135.948 26.9227 135.425 26.792C134.902 26.6427 134.352 26.484 133.773 26.316C133.213 26.1293 132.672 25.896 132.149 25.616C131.626 25.3173 131.197 24.916 130.861 24.412C130.544 23.8893 130.385 23.2173 130.385 22.396C130.385 21.5373 130.59 20.7907 131.001 20.156C131.43 19.5213 132.037 19.0267 132.821 18.672C133.605 18.3173 134.529 18.14 135.593 18.14C136.713 18.14 137.721 18.336 138.617 18.728C139.532 19.12 140.288 19.708 140.885 20.492L138.673 22.704C138.262 22.2 137.796 21.836 137.273 21.612C136.769 21.388 136.218 21.276 135.621 21.276C135.08 21.276 134.66 21.36 134.361 21.528C134.081 21.696 133.941 21.9293 133.941 22.228C133.941 22.564 134.1 22.8253 134.417 23.012C134.753 23.1987 135.182 23.3667 135.705 23.516C136.228 23.6467 136.769 23.8053 137.329 23.992C137.908 24.16 138.449 24.4027 138.953 24.72C139.476 25.0373 139.896 25.4573 140.213 25.98C140.549 26.5027 140.717 27.1747 140.717 27.996C140.717 29.3213 140.241 30.376 139.289 31.16C138.337 31.9253 137.04 32.308 135.397 32.308ZM147.838 32.308C147.073 32.308 146.317 32.2053 145.57 32C144.842 31.7947 144.17 31.5147 143.554 31.16C142.938 30.7867 142.406 30.3387 141.958 29.816L144.142 27.604C144.609 28.1267 145.15 28.5187 145.766 28.78C146.382 29.0413 147.064 29.172 147.81 29.172C148.408 29.172 148.856 29.088 149.154 28.92C149.472 28.752 149.63 28.5 149.63 28.164C149.63 27.7907 149.462 27.5013 149.126 27.296C148.809 27.0907 148.389 26.9227 147.866 26.792C147.344 26.6427 146.793 26.484 146.214 26.316C145.654 26.1293 145.113 25.896 144.59 25.616C144.068 25.3173 143.638 24.916 143.302 24.412C142.985 23.8893 142.826 23.2173 142.826 22.396C142.826 21.5373 143.032 20.7907 143.442 20.156C143.872 19.5213 144.478 19.0267 145.262 18.672C146.046 18.3173 146.97 18.14 148.034 18.14C149.154 18.14 150.162 18.336 151.058 18.728C151.973 19.12 152.729 19.708 153.326 20.492L151.114 22.704C150.704 22.2 150.237 21.836 149.714 21.612C149.21 21.388 148.66 21.276 148.062 21.276C147.521 21.276 147.101 21.36 146.802 21.528C146.522 21.696 146.382 21.9293 146.382 22.228C146.382 22.564 146.541 22.8253 146.858 23.012C147.194 23.1987 147.624 23.3667 148.146 23.516C148.669 23.6467 149.21 23.8053 149.77 23.992C150.349 24.16 150.89 24.4027 151.394 24.72C151.917 25.0373 152.337 25.4573 152.654 25.98C152.99 26.5027 153.158 27.1747 153.158 27.996C153.158 29.3213 152.682 30.376 151.73 31.16C150.778 31.9253 149.481 32.308 147.838 32.308ZM158.152 32.28C157.48 32.28 156.929 32.056 156.5 31.608C156.07 31.16 155.856 30.6093 155.856 29.956C155.856 29.3027 156.07 28.752 156.5 28.304C156.929 27.856 157.48 27.632 158.152 27.632C158.805 27.632 159.346 27.856 159.776 28.304C160.205 28.752 160.42 29.3027 160.42 29.956C160.42 30.6093 160.205 31.16 159.776 31.608C159.346 32.056 158.805 32.28 158.152 32.28ZM169.135 32.28C167.903 32.28 166.793 31.972 165.803 31.356C164.814 30.74 164.039 29.9 163.479 28.836C162.919 27.772 162.639 26.5773 162.639 25.252C162.639 23.908 162.919 22.704 163.479 21.64C164.039 20.576 164.814 19.736 165.803 19.12C166.793 18.504 167.903 18.196 169.135 18.196C170.106 18.196 170.974 18.392 171.739 18.784C172.505 19.176 173.111 19.7267 173.559 20.436C174.026 21.1267 174.278 21.9107 174.315 22.788V27.66C174.278 28.556 174.026 29.3493 173.559 30.04C173.111 30.7307 172.505 31.2813 171.739 31.692C170.974 32.084 170.106 32.28 169.135 32.28ZM169.807 28.892C170.834 28.892 171.665 28.556 172.299 27.884C172.934 27.1933 173.251 26.3067 173.251 25.224C173.251 24.5147 173.102 23.8893 172.803 23.348C172.523 22.788 172.122 22.3587 171.599 22.06C171.095 21.7427 170.498 21.584 169.807 21.584C169.135 21.584 168.538 21.7427 168.015 22.06C167.511 22.3587 167.11 22.788 166.811 23.348C166.531 23.8893 166.391 24.5147 166.391 25.224C166.391 25.952 166.531 26.596 166.811 27.156C167.11 27.6973 167.511 28.1267 168.015 28.444C168.538 28.7427 169.135 28.892 169.807 28.892ZM173.055 32V28.36L173.643 25.056L173.055 21.808V18.476H176.695V32H173.055ZM179.94 32V18.476H183.636V32H179.94ZM181.788 16.292C181.191 16.292 180.696 16.096 180.304 15.704C179.912 15.2933 179.716 14.7893 179.716 14.192C179.716 13.6133 179.912 13.1187 180.304 12.708C180.696 12.2973 181.191 12.092 181.788 12.092C182.404 12.092 182.899 12.2973 183.272 12.708C183.664 13.1187 183.86 13.6133 183.86 14.192C183.86 14.7893 183.664 15.2933 183.272 15.704C182.899 16.096 182.404 16.292 181.788 16.292Z"
        fill="#5044E5" />
    <g clip-path="url(#clip0_1_146)">
        <path d="M14.5 8.875L27.625 15.4375V28.5625L14.5 35.125L1.375 28.5625V15.4375L14.5 8.875Z"
            stroke="#5044E5" stroke-width="3" />
        <path opacity="0.7"
            d="M14.5 13.25L23.25 17.625V26.375L14.5 30.75L5.75 26.375V17.625L14.5 13.25Z"
            stroke="#5044E5" stroke-width="2" />
        <path opacity="0.5"
            d="M14.5 15.4375L21.0625 18.5V25.5L14.5 28.5625L7.9375 25.5V18.5L14.5 15.4375Z"
            stroke="#5044E5" stroke-width="2" />
        <path opacity="0.3"
            d="M14.5 17.625L18.875 19.8125V24.1875L14.5 26.375L10.125 24.1875V19.8125L14.5 17.625Z"
            stroke="#5044E5" stroke-width="2" />
        <path opacity="0.9"
            d="M14.5 24.1875C15.7081 24.1875 16.6875 23.2081 16.6875 22C16.6875 20.7919 15.7081 19.8125 14.5 19.8125C13.2919 19.8125 12.3125 20.7919 12.3125 22C12.3125 23.2081 13.2919 24.1875 14.5 24.1875Z"
            fill="#5044E5" />
        <path opacity="0.7"
            d="M7.9375 21.125C8.66239 21.125 9.25 20.5374 9.25 19.8125C9.25 19.0876 8.66239 18.5 7.9375 18.5C7.21261 18.5 6.625 19.0876 6.625 19.8125C6.625 20.5374 7.21261 21.125 7.9375 21.125Z"
            fill="#5044E5" />
        <path opacity="0.7"
            d="M21.0625 21.125C21.7874 21.125 22.375 20.5374 22.375 19.8125C22.375 19.0876 21.7874 18.5 21.0625 18.5C20.3376 18.5 19.75 19.0876 19.75 19.8125C19.75 20.5374 20.3376 21.125 21.0625 21.125Z"
            fill="#5044E5" />
        <path opacity="0.7"
            d="M7.9375 25.5C8.66239 25.5 9.25 24.9124 9.25 24.1875C9.25 23.4626 8.66239 22.875 7.9375 22.875C7.21261 22.875 6.625 23.4626 6.625 24.1875C6.625 24.9124 7.21261 25.5 7.9375 25.5Z"
            fill="#5044E5" />
        <path opacity="0.7"
            d="M21.0625 25.5C21.7874 25.5 22.375 24.9124 22.375 24.1875C22.375 23.4626 21.7874 22.875 21.0625 22.875C20.3376 22.875 19.75 23.4626 19.75 24.1875C19.75 24.9124 20.3376 25.5 21.0625 25.5Z"
            fill="#5044E5" />
        <path opacity="0.7"
            d="M14.5 16.75C15.2249 16.75 15.8125 16.1624 15.8125 15.4375C15.8125 14.7126 15.2249 14.125 14.5 14.125C13.7751 14.125 13.1875 14.7126 13.1875 15.4375C13.1875 16.1624 13.7751 16.75 14.5 16.75Z"
            fill="#5044E5" />
        <path opacity="0.7"
            d="M14.5 29.875C15.2249 29.875 15.8125 29.2874 15.8125 28.5625C15.8125 27.8376 15.2249 27.25 14.5 27.25C13.7751 27.25 13.1875 27.8376 13.1875 28.5625C13.1875 29.2874 13.7751 29.875 14.5 29.875Z"
            fill="#5044E5" />
        <path opacity="0.6" d="M14.5 22L7.9375 19.8125" stroke="#5044E5" stroke-width="1.5" />
        <path opacity="0.6" d="M14.5 22L21.0625 19.8125" stroke="#5044E5" stroke-width="1.5" />
        <path opacity="0.6" d="M14.5 22L7.9375 24.1875" stroke="#5044E5" stroke-width="1.5" />
        <path opacity="0.6" d="M14.5 22L21.0625 24.1875" stroke="#5044E5" stroke-width="1.5" />
        <path opacity="0.6" d="M14.5 22V15.4375" stroke="#5044E5" stroke-width="1.5" />
        <path opacity="0.6" d="M14.5 22V28.5625" stroke="#5044E5" stroke-width="1.5" />
        <path opacity="0.4" d="M7.9375 19.8125L3.5625 17.625" stroke="#5044E5" />
        <path opacity="0.4" d="M21.0625 19.8125L25.4375 17.625" stroke="#5044E5" />
        <path opacity="0.4" d="M7.9375 24.1875L3.5625 26.375" stroke="#5044E5" />
        <path opacity="0.4" d="M21.0625 24.1875L25.4375 26.375" stroke="#5044E5" />
    </g>
    <defs>
        <clipPath id="clip0_1_146">
            <rect width="28" height="28" fill="white" transform="translate(0.5 8)" />
        </clipPath>
    </defs>
</svg>