<svg width="29" height="28" viewBox="0 0 29 28" fill="none" xmlns="http://www.w3.org/2000/svg">
<g clip-path="url(#clip0_2003_127)">
<path d="M14.5 0.875L27.625 7.4375V20.5625L14.5 27.125L1.375 20.5625V7.4375L14.5 0.875Z" stroke="#5044E5" stroke-width="3"/>
<path opacity="0.7" d="M14.5 5.25L23.25 9.625V18.375L14.5 22.75L5.75 18.375V9.625L14.5 5.25Z" stroke="#5044E5" stroke-width="2"/>
<path opacity="0.5" d="M14.5 7.4375L21.0625 10.5V17.5L14.5 20.5625L7.9375 17.5V10.5L14.5 7.4375Z" stroke="#5044E5" stroke-width="2"/>
<path opacity="0.3" d="M14.5 9.625L18.875 11.8125V16.1875L14.5 18.375L10.125 16.1875V11.8125L14.5 9.625Z" stroke="#5044E5" stroke-width="2"/>
<path opacity="0.9" d="M14.5 16.1875C15.7081 16.1875 16.6875 15.2081 16.6875 14C16.6875 12.7919 15.7081 11.8125 14.5 11.8125C13.2919 11.8125 12.3125 12.7919 12.3125 14C12.3125 15.2081 13.2919 16.1875 14.5 16.1875Z" fill="#5044E5"/>
<path opacity="0.7" d="M7.9375 13.125C8.66239 13.125 9.25 12.5374 9.25 11.8125C9.25 11.0876 8.66239 10.5 7.9375 10.5C7.21261 10.5 6.625 11.0876 6.625 11.8125C6.625 12.5374 7.21261 13.125 7.9375 13.125Z" fill="#5044E5"/>
<path opacity="0.7" d="M21.0625 13.125C21.7874 13.125 22.375 12.5374 22.375 11.8125C22.375 11.0876 21.7874 10.5 21.0625 10.5C20.3376 10.5 19.75 11.0876 19.75 11.8125C19.75 12.5374 20.3376 13.125 21.0625 13.125Z" fill="#5044E5"/>
<path opacity="0.7" d="M7.9375 17.5C8.66239 17.5 9.25 16.9124 9.25 16.1875C9.25 15.4626 8.66239 14.875 7.9375 14.875C7.21261 14.875 6.625 15.4626 6.625 16.1875C6.625 16.9124 7.21261 17.5 7.9375 17.5Z" fill="#5044E5"/>
<path opacity="0.7" d="M21.0625 17.5C21.7874 17.5 22.375 16.9124 22.375 16.1875C22.375 15.4626 21.7874 14.875 21.0625 14.875C20.3376 14.875 19.75 15.4626 19.75 16.1875C19.75 16.9124 20.3376 17.5 21.0625 17.5Z" fill="#5044E5"/>
<path opacity="0.7" d="M14.5 8.75C15.2249 8.75 15.8125 8.16239 15.8125 7.4375C15.8125 6.71261 15.2249 6.125 14.5 6.125C13.7751 6.125 13.1875 6.71261 13.1875 7.4375C13.1875 8.16239 13.7751 8.75 14.5 8.75Z" fill="#5044E5"/>
<path opacity="0.7" d="M14.5 21.875C15.2249 21.875 15.8125 21.2874 15.8125 20.5625C15.8125 19.8376 15.2249 19.25 14.5 19.25C13.7751 19.25 13.1875 19.8376 13.1875 20.5625C13.1875 21.2874 13.7751 21.875 14.5 21.875Z" fill="#5044E5"/>
<path opacity="0.6" d="M14.5 14L7.9375 11.8125" stroke="#5044E5" stroke-width="1.5"/>
<path opacity="0.6" d="M14.5 14L21.0625 11.8125" stroke="#5044E5" stroke-width="1.5"/>
<path opacity="0.6" d="M14.5 14L7.9375 16.1875" stroke="#5044E5" stroke-width="1.5"/>
<path opacity="0.6" d="M14.5 14L21.0625 16.1875" stroke="#5044E5" stroke-width="1.5"/>
<path opacity="0.6" d="M14.5 14V7.4375" stroke="#5044E5" stroke-width="1.5"/>
<path opacity="0.6" d="M14.5 14V20.5625" stroke="#5044E5" stroke-width="1.5"/>
<path opacity="0.4" d="M7.9375 11.8125L3.5625 9.625" stroke="#5044E5"/>
<path opacity="0.4" d="M21.0625 11.8125L25.4375 9.625" stroke="#5044E5"/>
<path opacity="0.4" d="M7.9375 16.1875L3.5625 18.375" stroke="#5044E5"/>
<path opacity="0.4" d="M21.0625 16.1875L25.4375 18.375" stroke="#5044E5"/>
</g>
<defs>
<clipPath id="clip0_2003_127">
<rect width="28" height="28" fill="white" transform="translate(0.5)"/>
</clipPath>
</defs>
</svg>
